<?xml version="1.0" standalone="no"?>
<!DOCTYPE svg PUBLIC "-//W3C//DTD SVG 20010904//EN"
 "http://www.w3.org/TR/2001/REC-SVG-20010904/DTD/svg10.dtd">
<svg version="1.0" xmlns="http://www.w3.org/2000/svg"
 width="1024.000000pt" height="1024.000000pt" viewBox="0 0 1024.000000 1024.000000"
 preserveAspectRatio="xMidYMid meet">
<metadata>
Created by potrace 1.14, written by Peter Selinger 2001-2017
</metadata>
<g transform="translate(0.000000,1024.000000) scale(0.100000,-0.100000)"
fill="#000000" stroke="none">
<path d="M1855 9051 l-40 -6 -5 -60 c-3 -33 -11 -71 -19 -83 -7 -13 -10 -26
-7 -30 3 -3 -2 -14 -11 -24 -15 -17 -15 -21 2 -56 10 -20 17 -41 16 -47 -2 -5
-4 -15 -5 -21 -1 -7 -7 -18 -13 -26 -15 -17 -15 -105 0 -131 7 -12 33 -41 60
-65 26 -25 47 -50 47 -57 0 -15 -33 -45 -49 -45 -6 0 -21 -9 -33 -20 -13 -12
-25 -16 -32 -11 -6 5 -26 11 -45 14 -18 3 -38 10 -43 15 -25 25 -114 -38 -143
-102 -5 -12 -34 -46 -62 -76 -29 -29 -53 -59 -53 -67 0 -22 -24 -25 -66 -7
-73 32 -107 36 -144 17 -17 -8 -30 -19 -30 -24 0 -5 -27 -9 -61 -9 -55 0 -64
-3 -92 -32 -23 -23 -32 -41 -34 -70 -2 -51 -33 -77 -85 -73 -53 5 -69 -20 -55
-87 8 -38 24 -65 49 -82 22 -16 22 -16 -25 -61 -26 -25 -53 -45 -61 -45 -20 0
-46 -34 -46 -62 0 -14 -9 -33 -20 -43 -36 -33 -23 -90 34 -147 20 -20 36 -41
36 -47 0 -6 -17 -27 -37 -47 -32 -32 -37 -44 -38 -88 -3 -75 18 -110 82 -141
35 -16 57 -34 65 -52 20 -47 47 -63 108 -63 31 0 60 -4 65 -9 6 -5 30 -11 55
-15 64 -8 88 -16 150 -49 54 -28 100 -64 100 -77 0 -3 -9 -16 -20 -28 -20 -21
-20 -21 -63 -3 -41 18 -101 34 -112 31 -3 -1 -16 4 -28 12 -12 7 -29 12 -37
12 -8 -1 -21 -2 -27 -3 -7 0 -13 -9 -13 -19 0 -31 -33 -52 -79 -52 -27 0 -44
-5 -47 -14 -3 -9 -17 -14 -32 -13 -19 2 -38 -8 -65 -34 -20 -21 -37 -44 -37
-51 0 -8 -23 -36 -51 -63 -32 -32 -66 -81 -94 -136 -39 -78 -43 -91 -40 -150
1 -35 3 -68 4 -72 0 -4 17 -15 36 -23 24 -9 33 -19 29 -29 -4 -8 -10 -15 -15
-15 -5 0 -9 -20 -9 -44 0 -26 -6 -48 -15 -56 -8 -7 -12 -16 -9 -21 3 -5 7 -18
9 -29 13 -70 58 -113 118 -115 18 -1 45 -7 60 -13 16 -7 46 -12 68 -12 42 0
41 2 43 -70 l1 -35 87 0 c84 0 92 -3 89 -31 -1 -6 10 -17 24 -24 21 -11 25
-21 25 -57 0 -44 11 -76 37 -101 7 -7 13 -19 13 -25 1 -12 72 -70 116 -94 21
-12 54 -9 54 6 0 3 10 17 23 31 12 14 33 41 47 60 41 59 74 90 96 90 13 0 45
25 82 63 l62 62 86 2 c48 1 92 7 98 13 5 5 17 10 26 10 9 0 27 11 40 25 21 22
32 25 95 25 l72 0 -5 -30 c-3 -21 -18 -42 -51 -68 -25 -20 -49 -41 -53 -47 -4
-5 -15 -10 -25 -10 -11 0 -18 -7 -18 -20 0 -11 -3 -22 -7 -25 -9 -7 12 -103
24 -111 11 -7 -6 -53 -29 -76 -36 -36 -67 -88 -69 -112 -1 -14 -6 -27 -13 -29
-15 -5 -14 -84 1 -117 10 -21 17 -25 48 -23 36 2 103 -23 115 -42 3 -6 17 -10
31 -10 19 0 26 -6 31 -30 3 -16 11 -30 19 -30 7 0 22 -14 34 -30 25 -35 45
-38 74 -11 12 11 32 22 46 24 14 3 49 27 78 53 30 27 57 49 62 49 5 0 21 11
36 24 21 19 40 24 88 25 70 2 90 -7 76 -35 -6 -10 -9 -22 -8 -26 1 -4 -4 -19
-11 -33 -9 -15 -13 -49 -12 -90 2 -70 21 -102 70 -121 20 -8 22 -13 15 -37 -4
-15 -8 -47 -8 -72 -1 -25 -7 -49 -13 -53 -18 -11 -16 -28 6 -80 24 -56 55 -60
105 -13 78 72 153 82 209 28 18 -17 48 -45 67 -61 l34 -31 26 25 c14 14 35 25
47 25 23 0 213 182 213 204 0 8 11 23 25 34 24 19 28 19 57 5 17 -9 57 -33 87
-53 72 -48 197 -123 283 -169 37 -20 78 -46 90 -57 42 -38 146 -154 218 -243
19 -24 47 -58 61 -75 85 -103 259 -349 259 -366 0 -5 4 -10 8 -10 5 0 23 -21
40 -47 17 -27 39 -57 49 -68 10 -11 40 -50 68 -85 27 -36 54 -70 60 -76 5 -6
17 -22 25 -34 23 -34 64 -85 73 -88 4 -2 7 -8 7 -14 0 -6 8 -18 18 -27 10 -9
42 -47 71 -86 55 -71 195 -237 241 -286 191 -202 278 -285 440 -419 155 -128
142 -117 260 -214 140 -115 181 -149 194 -161 32 -29 119 -96 176 -136 94 -66
296 -189 309 -189 6 0 11 -4 11 -10 0 -5 4 -10 9 -10 5 0 45 -22 88 -49 43
-26 150 -92 238 -146 88 -55 180 -113 205 -131 64 -44 291 -173 375 -213 39
-18 87 -42 108 -52 21 -10 43 -19 49 -19 6 0 68 -27 137 -61 69 -34 135 -63
145 -65 11 -2 24 -8 30 -14 5 -5 20 -10 32 -10 12 0 33 -6 46 -13 31 -16 190
-14 221 2 20 11 32 8 93 -24 76 -40 130 -49 169 -29 14 7 58 14 98 15 39 2 79
8 87 14 8 7 27 15 42 19 15 3 44 21 64 39 22 19 45 31 57 29 15 -3 65 41 187
163 156 156 168 170 166 202 -1 29 7 43 51 88 36 37 51 59 48 73 -2 12 3 26
11 33 8 6 14 23 14 38 0 19 15 41 50 76 28 27 48 54 46 60 -2 5 3 17 10 26 18
21 20 148 3 180 -15 29 -14 140 2 150 15 9 15 247 0 262 -6 6 -11 18 -11 27 0
8 -18 51 -40 95 -22 44 -40 86 -40 93 0 17 -47 110 -75 147 -12 17 -24 35 -26
40 -10 24 -117 181 -132 194 -10 7 -17 17 -17 22 0 10 -60 97 -100 145 -14 17
-43 52 -65 79 -22 27 -45 53 -50 59 -6 6 -48 56 -94 111 -121 144 -611 631
-781 775 -29 25 -63 54 -75 65 -13 11 -80 65 -150 120 -187 148 -377 298 -400
317 -11 9 -175 133 -365 275 -190 142 -381 286 -425 319 -44 34 -118 88 -165
120 -47 32 -90 63 -97 69 -33 28 -43 35 -48 35 -3 0 -13 8 -23 18 -10 9 -37
33 -61 52 -24 19 -49 40 -55 45 -196 171 -222 197 -327 325 -42 52 -106 125
-141 161 -34 36 -72 77 -84 90 -11 13 -63 72 -115 131 l-95 107 3 96 c1 55 -3
108 -9 123 -7 15 -13 55 -14 89 -2 61 -1 63 42 108 50 51 70 55 130 26 22 -11
67 -22 102 -25 59 -5 62 -5 79 22 10 15 40 48 66 75 41 40 49 53 50 89 1 32 9
49 36 77 46 47 48 81 11 152 l-30 57 38 34 c20 19 56 55 79 81 l42 46 -25 44
c-20 38 -64 79 -84 82 -3 1 -22 7 -43 14 -21 7 -75 14 -120 15 -77 1 -82 2
-85 24 -2 12 -7 22 -10 22 -4 0 -7 24 -6 53 1 67 -15 80 -94 74 -65 -5 -107
-22 -138 -54 -12 -13 -28 -23 -36 -23 -8 0 -19 -5 -26 -12 -9 -9 -15 -9 -24 0
-20 20 -83 15 -104 -9 -37 -41 -94 -81 -123 -85 l-29 -5 2 51 c3 49 6 55 74
123 71 72 82 93 61 114 -6 6 -8 16 -5 21 8 13 88 52 106 52 7 0 41 29 76 64
62 63 63 65 60 113 -4 62 -19 91 -52 99 -26 7 -56 57 -48 79 6 15 -23 40 -67
58 -55 23 -187 16 -231 -11 -34 -21 -46 -22 -93 -2 -11 5 -33 13 -50 18 -18 5
-35 20 -44 38 -19 40 -42 64 -71 76 -31 13 -149 18 -155 7 -3 -4 -31 -19 -62
-34 l-57 -26 -37 38 c-20 21 -45 45 -55 53 -20 16 -98 44 -124 45 -8 1 -20 4
-26 8 -7 4 -23 -2 -36 -13 -14 -11 -27 -17 -30 -15 -10 10 -49 -44 -53 -71 -2
-16 -15 -50 -29 -76 -15 -29 -23 -57 -20 -73 3 -15 -1 -27 -9 -30 -16 -7 -20
-45 -5 -45 6 0 9 -3 5 -6 -3 -4 10 -35 29 -71 l36 -65 -23 -24 -22 -24 -21 29
c-19 27 -59 50 -143 81 -21 8 -33 19 -33 31 0 10 -4 20 -8 23 -13 8 -4 86 11
100 7 8 12 33 11 62 -2 52 -26 83 -68 85 -73 3 -106 16 -106 42 0 5 -10 32
-22 58 -18 36 -33 52 -63 66 -21 10 -42 18 -45 19 -3 0 -27 4 -53 8 -38 7 -51
5 -66 -8 -10 -9 -22 -16 -28 -16 -6 0 -31 -20 -55 -45 -30 -31 -53 -46 -75
-49 -18 -2 -33 1 -33 6 0 5 -4 7 -8 4 -5 -3 -26 13 -47 34 -22 22 -47 40 -56
40 -10 0 -20 4 -23 9 -7 11 -48 6 -73 -9 -16 -11 -23 -9 -46 12 -14 14 -46 31
-69 38 -49 16 -137 20 -145 7 -2 -4 -20 1 -39 13 -48 28 -77 25 -113 -11 -23
-22 -31 -40 -31 -65 0 -49 -64 -133 -103 -133 -16 -1 -26 3 -23 8 10 15 -33
133 -56 152 -11 11 -33 20 -47 20 -57 3 -107 -3 -128 -17 -21 -13 -25 -11 -55
22 -83 89 -100 103 -135 113 -21 6 -47 11 -58 11 -11 0 -29 7 -39 15 -11 8
-25 14 -30 14 -6 -1 -29 -5 -51 -8z m2483 -1998 c2 -23 9 -33 20 -34 55 -3 83
-9 106 -24 23 -15 25 -22 22 -73 -1 -34 3 -63 10 -72 22 -27 20 -67 -4 -93
l-23 -24 -87 87 c-167 166 -173 174 -176 216 -2 22 -1 42 0 45 2 3 32 5 66 5
l63 -1 3 -32z"/>
</g>
</svg>
